<?xml version="1.0" encoding="iso-8859-1"?>
<!-- Generator: Adobe Illustrator 19.1.0, SVG Export Plug-In . SVG Version: 6.00 Build 0)  -->
<svg version="1.1" id="Capa_1" xmlns="http://www.w3.org/2000/svg" xmlns:xlink="http://www.w3.org/1999/xlink" x="0px" y="0px"
	 viewBox="0 0 130.744 130.744" style="enable-background:new 0 0 130.744 130.744;" xml:space="preserve">
<g>
	<path d="M46.123,106.728c-0.441,0-0.877-0.193-1.173-0.564C34.942,93.623,32.13,76.438,32.016,75.712
		c-2.514-12.31,0.456-31.175,0.583-31.972c0.068-0.429,0.32-0.807,0.688-1.036c0.368-0.229,0.819-0.287,1.233-0.16
		c2,0.615,4.693-1.241,5.481-1.939c3.109-2.703,2.777-5.457,2.762-5.573c-0.061-0.451,0.083-0.927,0.398-1.257
		c9.142-9.578,21.686-8.589,22.217-8.542c0.825,0.073,1.435,0.801,1.362,1.626s-0.799,1.436-1.625,1.362
		c-0.166-0.01-11.266-0.836-19.341,7.173c-0.014,1.455-0.479,4.582-3.794,7.464c-0.141,0.125-3.212,2.807-6.607,2.807
		c-0.008,0-0.016,0-0.024,0c-0.642,4.672-2.409,19.587-0.384,29.512c0.039,0.235,2.825,17.206,12.328,29.114
		c0.517,0.647,0.411,1.591-0.237,2.108C46.781,106.621,46.451,106.728,46.123,106.728z"/>
	<path d="M34.079,45.478c-0.305,0-0.613-0.093-0.88-0.286C22.378,37.337,22.128,21.414,22.122,20.74
		c0.281-9.044,1.548-14.157,3.875-15.688c0.72-0.474,1.445-0.543,1.979-0.438c1.572,0.156,2.329,1.918,2.512,3.573
		c0.004,0.038,0.007,0.077,0.008,0.115c0.589,17.441,14.329,25.116,14.468,25.192c0.728,0.396,0.997,1.307,0.601,2.034
		c-0.396,0.728-1.307,0.997-2.034,0.601c-0.627-0.341-15.352-8.568-16.03-27.658c-0.027-0.203-0.076-0.429-0.132-0.626
		c-0.606,0.799-1.957,3.608-2.247,12.93c0.002,0.09,0.256,15.033,9.84,21.989c0.67,0.486,0.819,1.424,0.333,2.095
		C35.001,45.263,34.543,45.478,34.079,45.478z"/>
	<path d="M26.53,20.002c-1.296,0-2.457-0.424-3.187-0.867c-0.708-0.43-0.934-1.353-0.504-2.061c0.428-0.705,1.343-0.931,2.051-0.51
		c0.396,0.23,2.433,1.251,4.011-0.959c0.481-0.673,1.417-0.83,2.093-0.349c0.674,0.481,0.83,1.418,0.349,2.093
		C29.902,19.366,28.116,20.002,26.53,20.002z"/>
	<path d="M37.771,62.099"/>
	<path d="M41.217,71.375c-0.096,0-0.193-0.009-0.291-0.029c-0.812-0.16-1.342-0.948-1.182-1.761
		c0.819-4.167-2.666-6.123-2.701-6.142c-0.727-0.397-0.995-1.308-0.598-2.036c0.396-0.727,1.307-0.995,2.036-0.598
		c1.889,1.031,5.198,4.312,4.207,9.354C42.547,70.879,41.92,71.375,41.217,71.375z"/>
	<path d="M36.414,69.811c-2.619,0-4.75-2.131-4.75-4.75c0-2.619,2.131-4.75,4.75-4.75s4.75,2.131,4.75,4.75
		C41.164,67.681,39.033,69.811,36.414,69.811z M36.414,63.311c-0.965,0-1.75,0.785-1.75,1.75s0.785,1.75,1.75,1.75
		s1.75-0.785,1.75-1.75S37.379,63.311,36.414,63.311z"/>
	<path d="M19.445,65.272c-6.241,0-10.845-2.565-11.537-2.974c-7.428-3.633-8.337-9.573-7.771-12.305
		c0.437-4.059,4.597-5.32,4.775-5.372c15.095-4.946,28.476,6.735,29.039,7.235c0.619,0.55,0.674,1.497,0.125,2.116
		S32.58,54.649,31.96,54.1c-0.125-0.11-12.678-11.029-26.158-6.613c-0.137,0.042-2.493,0.789-2.686,2.878
		c-0.006,0.065-0.016,0.13-0.031,0.193c-0.044,0.212-1.058,5.551,6.192,9.069c0.051,0.025,0.1,0.052,0.148,0.083
		c0.424,0.265,10.586,6.465,21.589-1.213c0.679-0.474,1.615-0.307,2.088,0.372c0.474,0.679,0.308,1.614-0.372,2.088
		C28.032,64.237,23.409,65.272,19.445,65.272z"/>
	<path d="M20.087,60.969c-7.198,0-9.912-2.547-10.302-2.957c-1.404-1.484-2.002-2.992-1.783-4.484
		c0.302-2.055,2.05-3.112,2.248-3.226c0.809-0.426,7.899-3.701,22.584,4.231c0.729,0.394,1,1.303,0.607,2.032
		c-0.031,0.057-0.064,0.111-0.101,0.162c0.101,0.141,0.179,0.301,0.228,0.478c0.22,0.799-0.25,1.625-1.049,1.844
		C27.366,60.466,23.284,60.969,20.087,60.969z M11.698,52.929c0.008,0-0.648,0.436-0.73,1.049c-0.088,0.665,0.492,1.438,0.994,1.969
		c0.02,0.018,4.402,4.051,18.244,0.606C25.657,54.311,16.176,50.578,11.698,52.929L11.698,52.929z"/>
	<path d="M51.58,43.103c-2.343,0-4.25-2.075-4.25-4.625c0-0.829,0.671-1.5,1.5-1.5s1.5,0.671,1.5,1.5
		c0,0.881,0.572,1.625,1.25,1.625s1.25-0.744,1.25-1.625c0-0.829,0.671-1.5,1.5-1.5s1.5,0.671,1.5,1.5
		C55.83,41.028,53.923,43.103,51.58,43.103z"/>
	<path d="M62.549,41.968c-2.343,0-4.25-2.075-4.25-4.625c0-0.829,0.671-1.5,1.5-1.5s1.5,0.671,1.5,1.5
		c0,0.881,0.572,1.625,1.25,1.625s1.25-0.744,1.25-1.625c0-0.829,0.671-1.5,1.5-1.5s1.5,0.671,1.5,1.5
		C66.799,39.893,64.892,41.968,62.549,41.968z"/>
	<path d="M54.326,39.382c-0.767,0-1.421-0.585-1.492-1.364c-0.109-1.195,0.206-2.365,0.884-3.295
		c0.722-0.988,1.762-1.59,2.929-1.696c2.339-0.218,4.421,1.682,4.652,4.221c0.075,0.825-0.533,1.555-1.358,1.629
		c-0.812,0.073-1.555-0.533-1.629-1.358c-0.08-0.877-0.708-1.562-1.394-1.505c-0.398,0.037-0.658,0.315-0.777,0.479
		c-0.245,0.335-0.361,0.792-0.32,1.253c0.075,0.825-0.533,1.555-1.358,1.629C54.418,39.38,54.372,39.382,54.326,39.382z"/>
	<path d="M59.247,95.352c-0.384,0-0.768-0.146-1.061-0.439c-7.888-7.887-6.136-18.378-6.057-18.821
		c0.144-0.815,0.924-1.359,1.739-1.215c0.814,0.145,1.358,0.921,1.216,1.735l0,0c-0.016,0.094-1.535,9.422,5.224,16.18
		c0.586,0.585,0.586,1.535,0,2.121C60.015,95.206,59.631,95.352,59.247,95.352z"/>
	<path d="M54.497,116.353c-2.757,0-5-2.243-5-5s2.243-5,5-5s5,2.243,5,5S57.254,116.353,54.497,116.353z M54.497,109.353
		c-1.103,0-2,0.897-2,2s0.897,2,2,2s2-0.897,2-2S55.6,109.353,54.497,109.353z"/>
	<path d="M54.473,123.158c-0.446,0-0.779-0.032-0.962-0.056c-5.614-0.07-10.514-5.472-10.514-11.625
		c0-2.474,0.869-4.883,2.448-6.784c2.025-2.441,5.006-3.841,8.177-3.841c2.127,0,4.18,0.626,5.936,1.812
		c0.687,0.463,0.868,1.396,0.404,2.082c-0.463,0.687-1.396,0.869-2.082,0.404c-1.259-0.849-2.731-1.298-4.258-1.298
		c-2.276,0-4.415,1.005-5.869,2.758c-1.132,1.363-1.756,3.092-1.756,4.867c0,4.071,3.261,8.625,7.625,8.625
		c0.089,0,0.178,0.008,0.266,0.024c0.09,0.013,2.556,0.385,5.078-1.531c3.289-2.5,5.119-2.459,6.107-2.434l0.175,0.003
		c0.829,0,1.5,0.671,1.5,1.5s-0.671,1.5-1.5,1.5l-0.246-0.004c-0.66-0.016-1.767-0.042-4.221,1.823
		C58.331,122.846,55.858,123.158,54.473,123.158z"/>
	<path d="M65.247,126.173h-2.5c-5.311,0-7.118-3.734-7.192-3.893c-0.351-0.75-0.027-1.643,0.724-1.994
		c0.745-0.348,1.63-0.032,1.986,0.707c0.063,0.123,1.171,2.181,4.482,2.181h2.5c0.829,0,1.5,0.671,1.5,1.5
		S66.076,126.173,65.247,126.173z"/>
	<path d="M84.621,106.728c-0.328,0-0.658-0.107-0.935-0.328c-0.647-0.517-0.753-1.46-0.237-2.108
		c9.502-11.908,12.289-28.879,12.316-29.049c2.035-9.979,0.27-24.903-0.372-29.577c-0.008,0-0.016,0-0.023,0
		c-3.396,0-6.468-2.683-6.618-2.816c-3.307-2.875-3.77-6.001-3.783-7.455c-8.124-8.062-19.225-7.183-19.339-7.173
		c-0.826,0.075-1.553-0.536-1.626-1.362c-0.073-0.825,0.537-1.554,1.362-1.626c0.533-0.047,13.076-1.035,22.217,8.542
		c0.325,0.34,0.471,0.812,0.396,1.276c-0.013,0.097-0.344,2.85,2.754,5.544c0.859,0.754,3.504,2.559,5.492,1.948
		c0.414-0.127,0.866-0.069,1.233,0.16c0.369,0.229,0.62,0.607,0.688,1.036c0.128,0.797,3.097,19.662,0.572,32.037
		c-0.103,0.66-2.915,17.845-12.922,30.386C85.499,106.535,85.062,106.728,84.621,106.728z"/>
	<path d="M96.666,45.478c-0.464,0-0.922-0.214-1.215-0.619c-0.487-0.671-0.338-1.609,0.333-2.095
		c9.609-6.975,9.838-21.898,9.839-22.048c-0.29-9.273-1.64-12.074-2.246-12.872c-0.058,0.206-0.107,0.437-0.132,0.624
		c-0.679,19.089-15.403,27.319-16.03,27.66c-0.728,0.396-1.639,0.127-2.034-0.601c-0.396-0.727-0.128-1.636,0.598-2.033l0,0
		c0.139-0.076,13.883-7.815,14.47-25.193c0.001-0.038,0.004-0.077,0.008-0.115c0.184-1.655,0.941-3.417,2.512-3.573
		c0.534-0.105,1.26-0.036,1.979,0.438c2.327,1.531,3.594,6.644,3.875,15.629c-0.005,0.733-0.255,16.656-11.076,24.511
		C97.279,45.385,96.971,45.478,96.666,45.478z"/>
	<path d="M104.214,20.002c-1.585,0-3.372-0.636-4.812-2.652c-0.481-0.674-0.325-1.611,0.349-2.093
		c0.674-0.482,1.61-0.326,2.093,0.349c1.579,2.212,3.62,1.186,4.013,0.958c0.71-0.414,1.629-0.181,2.05,0.527
		c0.42,0.708,0.199,1.617-0.505,2.044C106.672,19.578,105.51,20.002,104.214,20.002z"/>
	<path d="M92.974,62.099"/>
	<path d="M89.527,71.375c-0.703,0-1.33-0.496-1.47-1.211c-0.991-5.042,2.318-8.324,4.207-9.354c0.729-0.396,1.639-0.129,2.036,0.598
		c0.396,0.725,0.13,1.633-0.592,2.032c-0.168,0.096-3.513,2.05-2.708,6.146c0.16,0.813-0.37,1.602-1.182,1.761
		C89.72,71.366,89.623,71.375,89.527,71.375z"/>
	<path d="M94.33,69.811c-2.619,0-4.75-2.131-4.75-4.75c0-2.619,2.131-4.75,4.75-4.75s4.75,2.131,4.75,4.75
		C99.08,67.681,96.949,69.811,94.33,69.811z M94.33,63.311c-0.965,0-1.75,0.785-1.75,1.75s0.785,1.75,1.75,1.75
		s1.75-0.785,1.75-1.75S95.295,63.311,94.33,63.311z"/>
	<path d="M111.299,65.272c-3.963,0-8.586-1.035-13.285-4.314c-0.679-0.474-0.846-1.409-0.372-2.088
		c0.475-0.679,1.41-0.846,2.088-0.372c11.001,7.677,21.166,1.479,21.592,1.211c0.045-0.029,0.096-0.057,0.145-0.081
		c7.25-3.518,6.236-8.857,6.189-9.082c-0.011-0.055-0.022-0.125-0.028-0.181c-0.196-2.126-2.615-2.857-2.639-2.864
		c-13.567-4.448-26.079,6.486-26.204,6.597c-0.619,0.55-1.567,0.495-2.118-0.125s-0.495-1.567,0.125-2.118
		c0.562-0.5,13.944-12.184,29.085-7.22c0.132,0.038,4.291,1.299,4.729,5.357c0.566,2.732-0.343,8.672-7.771,12.305
		C122.144,62.707,117.539,65.272,111.299,65.272z"/>
	<path d="M110.657,60.969c-3.197,0-7.277-0.503-12.432-1.919c-0.799-0.219-1.269-1.045-1.049-1.844
		c0.048-0.177,0.126-0.337,0.228-0.478c-0.037-0.051-0.07-0.105-0.101-0.162c-0.394-0.729-0.122-1.639,0.607-2.033
		c14.686-7.932,21.775-4.658,22.536-4.258c0.247,0.141,1.995,1.198,2.297,3.252c0.22,1.492-0.379,3-1.78,4.48
		C120.57,58.42,117.853,60.968,110.657,60.969z M100.537,56.554c13.886,3.46,18.208-0.566,18.249-0.61
		c0.503-0.533,1.087-1.312,0.989-1.979c-0.092-0.624-0.767-1.057-0.773-1.061C114.56,50.572,105.085,54.309,100.537,56.554z"/>
	<path d="M79.164,43.103c-2.343,0-4.25-2.075-4.25-4.625c0-0.829,0.671-1.5,1.5-1.5s1.5,0.671,1.5,1.5
		c0,0.881,0.572,1.625,1.25,1.625s1.25-0.744,1.25-1.625c0-0.829,0.671-1.5,1.5-1.5s1.5,0.671,1.5,1.5
		C83.414,41.028,81.507,43.103,79.164,43.103z"/>
	<path d="M68.195,41.968c-2.343,0-4.25-2.075-4.25-4.625c0-0.829,0.671-1.5,1.5-1.5s1.5,0.671,1.5,1.5
		c0,0.881,0.572,1.625,1.25,1.625s1.25-0.744,1.25-1.625c0-0.829,0.671-1.5,1.5-1.5s1.5,0.671,1.5,1.5
		C72.445,39.893,70.539,41.968,68.195,41.968z"/>
	<path d="M76.418,39.382c-0.046,0-0.091-0.002-0.138-0.006c-0.825-0.075-1.433-0.804-1.358-1.629
		c0.042-0.461-0.075-0.918-0.32-1.253c-0.119-0.163-0.378-0.442-0.777-0.479c-0.665-0.06-1.313,0.628-1.393,1.505
		c-0.075,0.825-0.806,1.43-1.629,1.358c-0.825-0.075-1.433-0.804-1.358-1.629c0.231-2.539,2.319-4.441,4.652-4.221
		c1.167,0.105,2.207,0.708,2.929,1.696c0.679,0.93,0.993,2.1,0.884,3.295C77.839,38.797,77.185,39.382,76.418,39.382z"/>
	<path d="M71.497,95.352c-0.384,0-0.768-0.146-1.061-0.439c-0.586-0.586-0.586-1.536,0-2.121c6.794-6.794,5.241-16.083,5.224-16.177
		c-0.145-0.816,0.399-1.594,1.215-1.739c0.814-0.145,1.595,0.399,1.739,1.215c0.079,0.443,1.831,10.934-6.057,18.821
		C72.265,95.206,71.881,95.352,71.497,95.352z"/>
	<path d="M76.247,116.353c-2.757,0-5-2.243-5-5s2.243-5,5-5s5,2.243,5,5S79.004,116.353,76.247,116.353z M76.247,109.353
		c-1.103,0-2,0.897-2,2s0.897,2,2,2s2-0.897,2-2S77.35,109.353,76.247,109.353z"/>
	<path d="M76.272,123.158c-1.385,0-3.858-0.312-6.307-2.173c-2.454-1.865-3.562-1.84-4.221-1.823l-0.246,0.004
		c-0.829,0-1.5-0.671-1.5-1.5s0.671-1.5,1.5-1.5l0.175-0.003c0.985-0.025,2.818-0.066,6.107,2.434
		c2.521,1.916,4.985,1.545,5.09,1.528c0.079-0.013,0.173-0.021,0.253-0.021c4.364,0,7.625-4.554,7.625-8.625
		c0-1.775-0.624-3.504-1.755-4.867c-1.455-1.753-3.594-2.758-5.87-2.758c-1.527,0-2.999,0.449-4.258,1.298
		c-0.686,0.464-1.619,0.283-2.082-0.404c-0.463-0.687-0.283-1.619,0.404-2.082c1.756-1.185,3.808-1.812,5.936-1.812
		c3.171,0,6.152,1.4,8.178,3.842c1.578,1.9,2.447,4.309,2.447,6.783c0,6.152-4.9,11.554-10.514,11.625
		C77.051,123.126,76.718,123.158,76.272,123.158z"/>
	<path d="M67.997,126.173h-2.5c-0.829,0-1.5-0.671-1.5-1.5s0.671-1.5,1.5-1.5h2.5c3.368,0,4.464-2.142,4.474-2.164
		c0.351-0.75,1.244-1.074,1.994-0.724c0.75,0.351,1.074,1.244,0.724,1.994C75.115,122.439,73.308,126.173,67.997,126.173z"/>
</g>
<g>
</g>
<g>
</g>
<g>
</g>
<g>
</g>
<g>
</g>
<g>
</g>
<g>
</g>
<g>
</g>
<g>
</g>
<g>
</g>
<g>
</g>
<g>
</g>
<g>
</g>
<g>
</g>
<g>
</g>
</svg>
