<?xml version="1.0" encoding="iso-8859-1"?>
<!-- Generator: Adobe Illustrator 19.1.0, SVG Export Plug-In . SVG Version: 6.00 Build 0)  -->
<svg version="1.1" id="Capa_1" xmlns="http://www.w3.org/2000/svg" xmlns:xlink="http://www.w3.org/1999/xlink" x="0px" y="0px"
	 viewBox="0 0 135.956 135.956" style="enable-background:new 0 0 135.956 135.956;" xml:space="preserve">
<g>
	<path d="M67.619,129.233c-1.48,0-2.484-0.467-2.773-0.62c-5.839-2.8-9.135-8.151-9.273-8.378
		c-5.139-7.353-4.207-12.662-3.855-14.66c0.021-0.116,0.04-0.216,0.053-0.3c-0.503-1.56-4.559-10.198-8.249-17.803
		c-9.307-19.625-6.742-34.41-5.028-40.262c-7.527,1.516-28.337,3.601-37.628-16.847c-0.271-0.497-1.387-2.792-0.572-5.479
		c0.35-1.786,1.752-3.414,3.814-3.121c1.718,0.241,34.646,3.857,34.978,3.893c0.824,0.091,1.418,0.832,1.328,1.655
		s-0.833,1.413-1.655,1.328C37.398,28.488,5.452,24.98,3.69,24.733c-0.19,0.051-0.396,0.44-0.462,0.779
		C3.216,25.57,3.199,25.643,3.18,25.7c-0.542,1.698,0.31,3.211,0.318,3.227c0.024,0.042,0.054,0.098,0.074,0.142
		c4.294,9.492,11.731,14.845,22.104,15.909c7.894,0.805,14.622-1.281,14.689-1.302c0.565-0.179,1.182-0.009,1.575,0.434
		c0.393,0.442,0.49,1.075,0.246,1.614c-0.017,0.038-1.842,4.19-2.252,11.217c-0.378,6.485,0.406,16.82,6.293,29.233
		c8.56,17.638,8.56,18.594,8.56,19.002c0,0.271-0.047,0.542-0.113,0.917c-0.292,1.665-1.069,6.087,3.413,12.504
		c0.081,0.126,3.056,4.924,8.088,7.325c0.033,0.016,0.066,0.033,0.098,0.052c0.026,0.012,1.253,0.628,3.104-0.095
		c4.643-1.816,8.457-7.227,8.494-7.281c4.483-6.418,3.707-10.84,3.414-12.505c-0.066-0.375-0.113-0.646-0.113-0.917
		c0-0.408,0-1.364,8.565-19.014c5.88-12.401,6.665-22.736,6.286-29.221c-0.41-7.026-2.235-11.179-2.254-11.22
		c-0.241-0.539-0.143-1.171,0.25-1.612c0.393-0.44,1.007-0.611,1.572-0.433c0.067,0.021,6.797,2.113,14.689,1.302
		c10.373-1.064,17.81-6.417,22.104-15.909c0.024-0.053,0.051-0.104,0.081-0.154c0.002-0.003,0.855-1.517,0.312-3.214
		c-0.021-0.066-0.038-0.134-0.05-0.202c-0.063-0.326-0.27-0.715-0.382-0.769c-1.84,0.251-33.787,3.759-35.146,3.908
		c-0.827,0.085-1.564-0.504-1.655-1.328s0.504-1.564,1.328-1.655c0.332-0.036,33.26-3.652,34.978-3.893
		c2.056-0.292,3.465,1.335,3.815,3.121c0.815,2.687-0.303,4.982-0.574,5.479c-9.291,20.443-30.101,18.365-37.628,16.847
		c1.714,5.852,4.281,20.634-5.021,40.25c-3.698,7.62-7.756,16.264-8.256,17.817c0.013,0.077,0.033,0.179,0.054,0.297
		c0.351,1.999,1.283,7.308-3.909,14.741c-0.175,0.252-4.38,6.214-9.862,8.358C69.4,129.091,68.437,129.233,67.619,129.233z"/>
	<path d="M39.667,46.637c-0.137,0-0.276-0.019-0.415-0.059C18.568,40.643,2.53,25.48,1.857,24.838
		c-0.599-0.572-0.621-1.521-0.049-2.12c0.573-0.599,1.522-0.621,2.121-0.049c0.16,0.152,16.195,15.3,36.15,21.026
		c0.796,0.229,1.257,1.059,1.028,1.855C40.919,46.208,40.319,46.637,39.667,46.637z"/>
	<path d="M41.134,67.208c-0.786,0-1.584-0.182-2.344-0.562c-0.19-0.093-0.378-0.203-0.56-0.321
		c-0.693-0.453-0.889-1.382-0.436-2.076c0.453-0.693,1.381-0.888,2.076-0.436c0.08,0.052,0.162,0.101,0.25,0.144
		c1.236,0.617,2.374-0.015,2.911-0.863c0.076-0.119,0.14-0.499-0.005-1.019c-0.191-0.687-0.644-1.28-1.183-1.548
		c-0.962-0.481-1.694-0.634-2.063-0.429c-0.726,0.4-1.638,0.135-2.038-0.59s-0.135-1.638,0.59-2.038
		c1.952-1.076,4.133,0.015,4.85,0.373c1.293,0.644,2.315,1.926,2.733,3.428c0.354,1.271,0.226,2.521-0.352,3.43
		C44.542,66.317,42.871,67.208,41.134,67.208z"/>
	<path d="M46.726,68.682c-0.683,0-1.3-0.47-1.46-1.164c-0.889-3.855-2.408-6.055-2.423-6.076c-0.475-0.679-0.31-1.614,0.369-2.089
		c0.68-0.475,1.614-0.309,2.089,0.369c0.076,0.108,1.869,2.705,2.888,7.123c0.187,0.807-0.317,1.612-1.125,1.798
		C46.951,68.669,46.838,68.682,46.726,68.682z"/>
	<path d="M66.431,122.849c-6.223,0-13.16-9.088-14.01-10.234c-0.493-0.666-0.354-1.604,0.312-2.098
		c0.665-0.493,1.604-0.354,2.098,0.311c2.787,3.753,8.118,9.082,11.647,9.025v-4.646c0-0.829,0.671-1.5,1.5-1.5s1.5,0.671,1.5,1.5
		v5.865c0,0.622-0.384,1.179-0.964,1.401C67.835,122.732,67.137,122.849,66.431,122.849z"/>
	<path d="M64.08,113.221c-0.34,0-0.683-0.115-0.964-0.352l-3.74-3.145c-0.634-0.533-0.716-1.479-0.183-2.113
		c0.532-0.634,1.479-0.717,2.113-0.183l3.74,3.145c0.634,0.533,0.716,1.479,0.183,2.113
		C64.932,113.039,64.508,113.221,64.08,113.221z"/>
	<path d="M67.811,47.416c-3.261,0-6.051-1.817-7.314-4.472c-1.385,1.016-3.103,1.594-4.896,1.594c-4.04,0-7.393-2.856-7.958-6.564
		c-0.926,0.348-1.922,0.53-2.945,0.53c-4.434,0-8.041-3.443-8.041-7.676c0-1.334,0.354-2.615,1.034-3.759
		c-0.679-1.144-1.034-2.425-1.034-3.759c0-4.232,3.607-7.676,8.041-7.676c1.023,0,2.019,0.182,2.945,0.53
		c0.565-3.708,3.918-6.566,7.958-6.566c1.793,0,3.511,0.579,4.897,1.596c1.263-2.654,4.053-4.472,7.314-4.472
		c0.829,0,1.5,0.671,1.5,1.5s-0.671,1.5-1.5,1.5c-2.745,0-4.955,1.995-5.033,4.541c-0.021,0.664-0.476,1.236-1.118,1.405
		c-0.644,0.168-1.32-0.105-1.665-0.674c-0.895-1.478-2.579-2.396-4.396-2.396c-2.78,0-5.042,2.098-5.042,4.676
		c0,0.402,0.062,0.815,0.183,1.229c0.19,0.649-0.077,1.345-0.653,1.699c-0.577,0.354-1.318,0.279-1.812-0.182
		c-0.955-0.893-2.226-1.385-3.58-1.385c-2.78,0-5.041,2.098-5.041,4.676c0,1.018,0.354,1.99,1.022,2.812
		c0.449,0.552,0.449,1.343,0,1.895c-0.669,0.821-1.022,1.793-1.022,2.812c0,2.578,2.261,4.676,5.041,4.676
		c1.354,0,2.625-0.492,3.58-1.385c0.494-0.462,1.234-0.537,1.812-0.182c0.576,0.354,0.843,1.05,0.653,1.699
		c-0.121,0.414-0.183,0.827-0.183,1.229c0,2.577,2.262,4.674,5.042,4.674c1.817,0,3.501-0.917,4.396-2.394
		c0.344-0.568,1.021-0.841,1.665-0.674c0.643,0.169,1.098,0.741,1.118,1.405c0.078,2.546,2.288,4.541,5.033,4.541
		c0.829,0,1.5,0.671,1.5,1.5S68.64,47.416,67.811,47.416z"/>
	<path d="M41.444,88.1"/>
	<path d="M45.909,99.622c-4.066,0-7.388-3.248-7.506-7.285c-0.706,0.217-1.445,0.331-2.195,0.331c-4.141,0-7.51-3.369-7.51-7.509
		c0-0.724,0.102-1.433,0.299-2.109c-4.022-0.136-7.252-3.45-7.252-7.504c0-1.589,0.492-3.089,1.369-4.328
		c-2.806-1.089-4.801-3.818-4.801-7.004c0-2.009,0.818-3.892,2.173-5.269c-2.236-1.295-3.718-3.708-3.718-6.493
		c0-4.14,3.368-7.509,7.508-7.509c0.829,0,1.5,0.671,1.5,1.5s-0.671,1.5-1.5,1.5c-2.486,0-4.508,2.022-4.508,4.509
		c0,2.46,1.928,4.438,4.389,4.501c0.738,0.019,1.353,0.572,1.449,1.304s-0.354,1.425-1.062,1.634
		c-1.902,0.562-3.23,2.339-3.23,4.322c0,2.486,2.022,4.509,4.509,4.509c0.194,0,0.383-0.017,0.57-0.042
		c0.731-0.09,1.414,0.351,1.627,1.051c0.213,0.701-0.111,1.453-0.767,1.779c-1.546,0.77-2.506,2.316-2.506,4.034
		c0,2.486,2.022,4.509,4.509,4.509c0.709,0,1.395-0.166,2.036-0.491c0.66-0.335,1.462-0.14,1.895,0.457
		c0.433,0.598,0.367,1.422-0.157,1.943c-0.857,0.854-1.33,1.989-1.33,3.196c0,2.486,2.023,4.509,4.51,4.509
		c1.271,0,2.491-0.546,3.349-1.5c0.512-0.569,1.371-0.661,1.99-0.214c0.621,0.446,0.807,1.289,0.431,1.955
		c-0.379,0.671-0.579,1.434-0.579,2.205c0,2.486,2.023,4.509,4.51,4.509c1.046,0,2.028-0.348,2.839-1.006
		c0.642-0.522,1.587-0.424,2.11,0.219c0.522,0.643,0.424,1.587-0.219,2.11C49.306,99.026,47.627,99.622,45.909,99.622z"/>
	<path d="M96.289,46.637c-0.652,0-1.252-0.429-1.441-1.087c-0.229-0.796,0.232-1.627,1.028-1.855
		c19.98-5.733,35.992-20.874,36.151-21.025c0.599-0.572,1.549-0.551,2.121,0.048c0.572,0.599,0.551,1.548-0.048,2.121
		c-0.673,0.643-16.712,15.805-37.396,21.74C96.565,46.618,96.426,46.637,96.289,46.637z"/>
	<path d="M94.824,67.21c-1.736,0-3.409-0.892-4.435-2.51c-0.576-0.908-0.704-2.158-0.351-3.429c0.418-1.502,1.44-2.784,2.735-3.429
		c0.716-0.357,2.898-1.445,4.849-0.372c0.726,0.4,0.99,1.312,0.59,2.038s-1.312,0.99-2.038,0.59
		c-0.37-0.203-1.102-0.051-2.062,0.429c-0.54,0.269-0.993,0.861-1.184,1.548c-0.145,0.52-0.081,0.9-0.006,1.017
		c0.539,0.849,1.674,1.484,2.901,0.871c0.099-0.048,0.182-0.097,0.262-0.149c0.694-0.454,1.624-0.258,2.076,0.436
		c0.453,0.694,0.258,1.624-0.436,2.076c-0.182,0.119-0.371,0.228-0.572,0.327C96.401,67.029,95.606,67.21,94.824,67.21z"/>
	<path d="M89.23,68.682c-0.112,0-0.225-0.013-0.339-0.039c-0.807-0.186-1.311-0.992-1.124-1.799c1.02-4.418,2.813-7.014,2.889-7.123
		c0.475-0.678,1.41-0.844,2.089-0.369c0.677,0.475,0.843,1.408,0.371,2.086c-0.038,0.055-1.553,2.298-2.426,6.08
		C90.53,68.212,89.912,68.682,89.23,68.682z"/>
	<path d="M69.524,122.849c-0.707,0-1.404-0.117-2.082-0.376c-0.581-0.222-0.964-0.78-0.964-1.401v-5.865c0-0.829,0.671-1.5,1.5-1.5
		s1.5,0.671,1.5,1.5v4.651c3.878,0.094,9.762-6.487,11.649-9.03c0.493-0.666,1.434-0.804,2.098-0.311
		c0.666,0.493,0.805,1.433,0.311,2.098C82.685,113.761,75.746,122.849,69.524,122.849z"/>
	<path d="M71.877,113.221c-0.428,0-0.853-0.182-1.149-0.535c-0.533-0.634-0.452-1.58,0.183-2.113l3.739-3.145
		c0.635-0.533,1.582-0.451,2.113,0.183c0.533,0.634,0.452,1.58-0.183,2.113l-3.739,3.145
		C72.56,113.105,72.217,113.221,71.877,113.221z"/>
	<path d="M68.144,47.416c-0.829,0-1.5-0.671-1.5-1.5s0.671-1.5,1.5-1.5c2.745,0,4.955-1.995,5.033-4.541
		c0.021-0.664,0.476-1.236,1.118-1.405c0.642-0.168,1.32,0.105,1.664,0.673c0.895,1.477,2.58,2.395,4.396,2.395
		c2.781,0,5.043-2.097,5.043-4.674c0-0.402-0.062-0.815-0.183-1.229c-0.19-0.649,0.077-1.345,0.653-1.699
		c0.577-0.354,1.317-0.279,1.812,0.182c0.955,0.893,2.226,1.385,3.579,1.385c2.78,0,5.042-2.098,5.042-4.676
		c0-1.017-0.354-1.989-1.023-2.812c-0.449-0.552-0.449-1.343,0-1.895c0.669-0.822,1.023-1.794,1.023-2.812
		c0-2.578-2.262-4.676-5.042-4.676c-1.353,0-2.624,0.492-3.579,1.385c-0.494,0.462-1.235,0.536-1.812,0.182
		c-0.576-0.354-0.843-1.05-0.653-1.699c0.121-0.414,0.183-0.827,0.183-1.229c0-2.578-2.262-4.676-5.043-4.676
		c-1.816,0-3.5,0.918-4.396,2.396c-0.344,0.568-1.021,0.842-1.664,0.673c-0.643-0.169-1.098-0.741-1.118-1.405
		c-0.078-2.546-2.288-4.541-5.033-4.541c-0.829,0-1.5-0.671-1.5-1.5s0.671-1.5,1.5-1.5c3.261,0,6.051,1.817,7.314,4.472
		c1.386-1.017,3.104-1.596,4.897-1.596c4.04,0,7.394,2.857,7.959,6.566c0.926-0.348,1.921-0.53,2.944-0.53
		c4.435,0,8.042,3.443,8.042,7.676c0,1.333-0.355,2.614-1.035,3.759c0.68,1.145,1.035,2.425,1.035,3.759
		c0,4.232-3.607,7.676-8.042,7.676c-1.023,0-2.018-0.182-2.944-0.53c-0.565,3.708-3.919,6.564-7.959,6.564
		c-1.793,0-3.511-0.579-4.896-1.595C74.196,45.599,71.406,47.416,68.144,47.416z"/>
	<path d="M94.512,88.1"/>
	<path d="M90.048,99.622c-1.718,0-3.397-0.596-4.729-1.677c-0.643-0.522-0.741-1.467-0.219-2.11c0.521-0.644,1.466-0.742,2.11-0.219
		c0.811,0.658,1.792,1.006,2.839,1.006c2.487,0,4.51-2.022,4.51-4.509c0-0.771-0.2-1.533-0.579-2.205
		c-0.375-0.666-0.19-1.509,0.432-1.955c0.621-0.446,1.479-0.354,1.99,0.215c0.857,0.953,2.078,1.499,3.349,1.499
		c2.486,0,4.509-2.023,4.509-4.509c0-1.208-0.472-2.343-1.329-3.196c-0.523-0.521-0.59-1.345-0.157-1.943
		c0.433-0.598,1.236-0.793,1.895-0.457c0.641,0.326,1.325,0.491,2.035,0.491c2.487,0,4.51-2.022,4.51-4.509
		c0-1.718-0.96-3.264-2.506-4.034c-0.656-0.327-0.979-1.079-0.767-1.779c0.213-0.7,0.897-1.141,1.627-1.051
		c0.187,0.024,0.376,0.042,0.569,0.042c2.487,0,4.51-2.022,4.51-4.509c0-1.983-1.329-3.761-3.231-4.322
		c-0.708-0.209-1.159-0.902-1.062-1.634s0.71-1.285,1.449-1.304c2.461-0.063,4.39-2.041,4.39-4.501c0-2.486-2.022-4.509-4.509-4.509
		c-0.829,0-1.5-0.671-1.5-1.5s0.671-1.5,1.5-1.5c4.14,0,7.509,3.369,7.509,7.509c0,2.785-1.482,5.198-3.718,6.493
		c1.354,1.377,2.173,3.259,2.173,5.269c0,3.186-1.995,5.915-4.801,7.004c0.877,1.239,1.369,2.739,1.369,4.328
		c0,4.055-3.23,7.369-7.253,7.504c0.197,0.677,0.299,1.385,0.299,2.109c0,4.141-3.369,7.509-7.509,7.509
		c-0.75,0-1.489-0.114-2.195-0.331C97.435,96.374,94.114,99.622,90.048,99.622z"/>
</g>
<g>
</g>
<g>
</g>
<g>
</g>
<g>
</g>
<g>
</g>
<g>
</g>
<g>
</g>
<g>
</g>
<g>
</g>
<g>
</g>
<g>
</g>
<g>
</g>
<g>
</g>
<g>
</g>
<g>
</g>
</svg>
